# xmcd CD database file
#
# Track frame offsets:
#	150
#	58959
#	89660
#	109196
#	148796
#	189945
#
# Disc length: 3056 seconds
#
# Revision: 0
# Processed by: cddbd v1.4PL0 Copyright (c) Steve Scherf et al.
# Submitted via: CDex 1.51
#
DISCID=570bee06
DTITLE=Midori - The Magic of Easter Island 
DYEAR=2001
DGENRE=New Age
TTITLE0=Medwyn Goodall - Islands
TTITLE1=Medwyn Goodall - Watcher Of The Sea
TTITLE2=Medwyn Goodall - Sacred Mountain
TTITLE3=Medwyn Goodall - The Mist And The Stillness
TTITLE4=Medwyn Goodall - Idols
TTITLE5=Medwyn Goodall - The Wonder
EXTD=YEAR: 2001
EXTT0=
EXTT1=
EXTT2=
EXTT3=
EXTT4=
EXTT5=
PLAYORDER=
